<svg xmlns="http://www.w3.org/2000/svg" width="31.127" height="30.857" fill="none"><defs><clipPath id="b"><rect width="22.127" height="21.857" fill="#fff" fill-opacity="0" rx="0" transform="translate(4.5 .5)"/></clipPath><filter id="a" width="31.127" height="30.857" x="0" y="0" color-interpolation-filters="sRGB" filterUnits="userSpaceOnUse"><feFlood flood-opacity="0" result="BackgroundImageFix"/><feColorMatrix in="SourceAlpha" result="hardAlpha" values="0 0 0 0 0 0 0 0 0 0 0 0 0 0 0 0 0 0 127 0"/><feOffset dy="4"/><feGaussianBlur stdDeviation="1.333"/><feComposite in2="hardAlpha" k2="-1" k3="1" operator="out"/><feColorMatrix values="0 0 0 0 0 0 0 0 0 0 0 0 0 0 0 0 0 0 0.25 0"/><feBlend in2="BackgroundImageFix" result="effect_dropShadow_1"/><feBlend in="SourceGraphic" in2="effect_dropShadow_1" result="shape"/></filter></defs><g filter="url(#a)"><rect width="22.127" height="21.857" fill="none" rx="0" transform="translate(4.5 .5)"/><g clip-path="url(#b)"><path stroke="#000" stroke-linejoin="round" stroke-width="2" d="M22.36 3.25c-.65-.26-1.34-.4-2.03-.4-.7 0-1.39.14-2.03.4-.64.26-1.23.65-1.72 1.14l-1.02 1-1.02-1a5.33 5.33 0 0 0-3.75-1.54c-1.41 0-2.76.55-3.75 1.54-.99.98-1.55 2.31-1.55 3.7 0 1.39.56 2.72 1.55 3.71l1.02 1 7.5 7.41 7.5-7.41 1.02-1c.49-.49.88-1.07 1.15-1.7.26-.64.4-1.32.4-2.01 0-.69-.14-1.37-.4-2-.27-.64-.66-1.22-1.15-1.7-.5-.49-1.08-.88-1.72-1.14Z"/></g></g></svg>