<svg xmlns="http://www.w3.org/2000/svg" width="145" height="35" fill="none"><defs><clipPath id="a"><path fill="#fff" fill-opacity="0" d="M0 0h145v35H0z"/></clipPath></defs><path fill="none" d="M0 0h145v35H0z"/><g clip-path="url(#a)"><path fill="#118B50" fill-rule="evenodd" d="M26.39 26.08q.27-.89.27-1.66v-.81q0-1.22-.28-2.24-.27-1.01-.74-1.82-.47-.8-1.09-1.41-.62-.62-1.33-1.05.8-1.1 1.17-2.33.01-.05.03-.1.37-1.28.37-2.39v-.79q0-1.4-.51-2.37-.51-.97-1.27-1.57-.67-.52-1.42-.8-.12-.04-.23-.08-.89-.27-1.66-.27H5.68q-.44 0-.81.15-.02 0-.03.01-.28.11-.5.3-.09.07-.17.15-.07.07-.13.15-.19.24-.31.53-.04.1-.07.2-.09.3-.09.62v18.88q0 .44.15.82 0 .01.01.02.13.32.34.57l.1.1.1.1q.25.21.57.34.01.01.03.01.37.16.81.16h15.9q1.4 0 2.37-.51.97-.51 1.57-1.27.49-.61.76-1.32.06-.16.11-.32Zm28.27 2.12q.15-.38.15-.82V6.39h-4.19v18.92h-7.36q-.2 0-.82-.06-.62-.06-1.43-.28-.82-.23-1.72-.7-.9-.46-1.66-1.28-.76-.83-1.25-2.05-.49-1.23-.49-3V6.39H31.7v11.55q0 2.03.49 3.68.48 1.66 1.33 2.94.84 1.28 1.97 2.21 1.13.94 2.41 1.54.92.43 1.88.71.38.1.77.19 1.37.29 2.71.29h9.44q.32 0 .62-.09.1-.03.2-.08.29-.12.52-.3l.16-.14q.08-.08.15-.17.18-.22.3-.5 0-.01.01-.02Zm28.66-11.52q.37-1.12.37-2.56V6.39H79.5v7.73q0 1.1-.34 1.76-.34.66-.86 1.03-.19.14-.4.25-.35.18-.74.27-.63.16-1.22.25h-7.56q-.82 0-1.49-.25-.61-.22-1.06-.63l-.08-.08q-.07-.07-.13-.14-.37-.42-.59-.98-.26-.66-.26-1.48V6.39h-4.19v7.73q0 1.42.36 2.56.36 1.13.97 1.99.6.87 1.39 1.48.79.61 1.65 1.01.87.39 1.74.57.88.18 1.66.18h1.67v7.59h4.22v-7.59h1.7q.77 0 1.65-.18.88-.18 1.73-.57.85-.4 1.65-1.01.06-.05.12-.09.72-.59 1.27-1.39.6-.86.96-1.99Zm28.63 11.52q.15-.38.15-.82V6.39h-4.19v18.92h-7.37q-.19 0-.81-.06-.62-.06-1.44-.28-.81-.23-1.71-.7-.9-.46-1.66-1.28-.76-.83-1.25-2.05-.49-1.23-.49-3V6.39h-4.19v11.55q0 2.03.48 3.68.49 1.66 1.33 2.94.85 1.28 1.98 2.21 1.12.94 2.4 1.54.92.43 1.88.71.39.1.78.19 1.36.29 2.7.29h9.45q.32 0 .61-.09.11-.03.21-.08.29-.12.52-.3.08-.07.15-.14.09-.08.16-.17.18-.22.29-.5l.02-.02Zm29.75-11.48q.35-1.13.35-2.56v-2.68q0-.77-.26-1.66-.04-.12-.08-.23-.27-.76-.79-1.42-.61-.77-1.57-1.27-.97-.51-2.37-.51h-15.91q-.43 0-.81.15-.01 0-.02.01-.28.11-.5.3-.09.07-.17.15-.07.07-.14.15-.19.24-.31.53-.04.1-.07.2-.09.3-.09.62v21h4.19V10.58h13.83q.13 0 .28.01.03.01.07.02.11.02.22.09.14.09.22.27.09.19.09.54v2.65q0 .82-.25 1.45-.2.49-.52.86-.1.12-.22.23-.47.45-1.13.72-.65.26-1.44.33h-9.47v4.19h3.01l8.73 7.56h6.48l-8.75-7.56q.78 0 1.65-.18.88-.18 1.74-.57.87-.4 1.66-1.01.78-.61 1.39-1.47.6-.86.96-1.99ZM22.21 22.14q.26.65.26 1.47v.78q0 .34-.1.53t-.22.27q-.03.02-.06.03-.11.06-.23.07-.17.02-.28.02H7.76V10.58H19.7q.42 0 .63.21.24.22.24.69v.79q0 .82-.25 1.47-.21.54-.56.95-.07.09-.16.17-.06.07-.13.12-.43.38-1 .6-.66.25-1.48.25H9.43v4.22h9.44q.83 0 1.49.25.57.22 1 .6l.12.12.14.14q.37.42.59.98Z"/></g></svg>