<svg xmlns="http://www.w3.org/2000/svg" width="18.274" height="18" fill="none"><defs><clipPath id="a"><rect width="17.274" height="17" fill="#fff" fill-opacity="0" rx="0" transform="translate(.5 .5)"/></clipPath></defs><rect width="17.274" height="17" fill="none" rx="0" transform="translate(.5 .5)"/><g stroke="#FFF" stroke-linejoin="round" stroke-width="2" clip-path="url(#a)"><path d="M6.85 16.5c-.42 0-.76-.34-.76-.75 0-.42.34-.75.76-.75s.76.33.76.75c0 .41-.34.75-.76.75ZM15.22 16.5c-.42 0-.76-.34-.76-.75 0-.42.34-.75.76-.75s.77.33.77.75c0 .41-.35.75-.77.75Z"/><path stroke-linecap="round" d="M.76.75H3.8l2.04 10.04c.07.34.26.65.54.87.28.22.63.34.99.34h7.4c.35 0 .7-.12.98-.34.28-.22.47-.53.54-.87l1.22-6.29H4.56"/></g></svg>